<?xml version="1.0" encoding="utf-8"?>
<!-- Generator: Adobe Illustrator 21.0.0, SVG Export Plug-In . SVG Version: 6.00 Build 0)  -->
<svg version="1.1" id="Layer_1" xmlns="http://www.w3.org/2000/svg" xmlns:xlink="http://www.w3.org/1999/xlink" x="0px" y="0px"
	 viewBox="0 0 262 346" style="enable-background:new 0 0 262 346;" xml:space="preserve">
<style type="text/css">
	.st0{fill:none;}
	.st1{fill:url(#SVGID_1_);}
</style>
<g>
	<polygon class="st0" points="49.7,184.4 49.7,258.8 100.5,184.4 	"/>
	<polygon class="st0" points="196.9,43.4 196.9,41.9 49.7,41.9 49.7,146.4 126.5,146.4 	"/>
	<polygon class="st0" points="67.4,304.4 67.4,305.9 212.7,305.9 212.7,184.4 149.3,184.4 	"/>
	<polygon class="st0" points="212.7,146.4 212.7,91.6 175.3,146.4 	"/>
	<linearGradient id="SVGID_1_" gradientUnits="userSpaceOnUse" x1="6.1826" y1="173.9453" x2="256.6826" y2="173.9453">
		<stop  offset="0" style="stop-color:#00AEDB"/>
		<stop  offset="0.6358" style="stop-color:#35DECB"/>
		<stop  offset="1" style="stop-color:#4EF5C4"/>
	</linearGradient>
	<path class="st1" d="M253.4,5.4h-40.8h-163H25.9H6.2v337h3.8h39.8h163h43.3h0.8V5.4H253.4z M49.7,41.9h147.3v1.5l-70.4,103H49.7
		V41.9z M49.7,184.4h50.8l-50.8,74.4V184.4z M212.7,305.9H67.4v-1.5l81.9-120h63.3V305.9z M212.7,146.4h-37.4l37.4-54.8V146.4z"/>
</g>
</svg>
