<?xml version="1.0" standalone="no"?>
<!DOCTYPE svg PUBLIC "-//W3C//DTD SVG 20010904//EN"
 "http://www.w3.org/TR/2001/REC-SVG-20010904/DTD/svg10.dtd">
<svg version="1.0" xmlns="http://www.w3.org/2000/svg"
 width="995.000000pt" height="995.000000pt" viewBox="0 0 995.000000 995.000000"
 preserveAspectRatio="xMidYMid meet">
<metadata>
Created by potrace 1.11, written by Peter Selinger 2001-2013
</metadata>
<g transform="translate(0.000000,995.000000) scale(0.100000,-0.100000)"
fill="#000000" stroke="none">
<path d="M1384 9789 c-2 -3 -3 -2184 -3 -4846 l0 -4839 3604 0 3605 0 -2 4845
-3 4846 -3598 0 c-1980 0 -3601 -3 -3603 -6z m5484 -1064 c2 -13 -40 -83 -110
-185 -62 -91 -145 -211 -183 -268 -39 -56 -113 -165 -165 -241 -136 -200 -268
-394 -331 -486 -30 -44 -57 -82 -60 -85 -3 -3 -45 -63 -93 -135 -48 -71 -126
-186 -173 -255 -47 -69 -121 -177 -164 -240 -43 -63 -131 -193 -196 -288 -344
-503 -500 -731 -522 -764 l-25 -38 -1107 0 -1108 0 0 1497 c1 824 2 1500 4
1503 2 3 954 5 2117 5 l2113 0 3 -20z m449 -2982 c-2 -2 -244 -2 -536 -1
l-533 3 53 80 c30 44 56 82 59 85 3 3 28 39 55 80 28 41 54 80 58 85 4 6 71
102 147 215 76 113 148 219 160 235 36 51 204 296 220 321 8 13 56 83 106 156
50 73 117 172 150 220 l59 86 3 -780 c1 -430 1 -783 -1 -785z m-3235 -1100 c4
-2 -12 -32 -36 -66 -23 -34 -74 -107 -111 -162 -133 -195 -431 -631 -492 -720
-34 -49 -100 -146 -147 -215 -46 -69 -148 -217 -225 -330 -77 -113 -202 -297
-278 -408 -76 -112 -143 -208 -149 -213 -9 -7 -12 251 -12 1048 0 676 4 1060
10 1064 10 7 1428 9 1440 2z m3234 -1744 l1 -1745 -2086 0 c-2078 1 -2086 1
-2089 21 -1 12 30 66 74 130 41 61 118 173 170 250 52 77 128 187 167 245 40
58 125 182 188 275 64 94 159 233 212 310 53 77 134 196 181 265 173 255 535
786 566 830 18 25 90 131 160 235 71 105 139 204 150 220 12 17 71 102 130
190 60 88 128 188 152 223 24 35 49 70 56 77 6 8 12 16 12 18 0 6 108 165 128
188 13 15 99 16 920 15 l907 -1 1 -1746z"/>
</g>
</svg>
